<svg width="36" height="36" viewBox="0 0 36 36" fill="none" xmlns="http://www.w3.org/2000/svg">
<g clip-path="url(#clip0)">
<path d="M33.706 0H2.29906C1.02886 0 0 1.02886 0 2.29652V33.7035C0 34.9711 1.02886 36 2.29906 36H33.7035C34.9711 36 36 34.9711 36 33.7035V2.29652C36.0025 1.02632 34.9737 0 33.706 0ZM29.8624 21.9363C30.5204 22.607 31.9481 23.7324 31.6889 24.8781C31.4501 25.9299 29.8802 25.5463 28.3559 25.6072C26.6158 25.6809 25.5844 25.719 24.5377 24.8781C24.0449 24.4793 23.7553 24.0068 23.2828 23.4784C22.8534 23.0008 22.3123 22.1447 21.5756 22.1777C20.2521 22.2437 20.6661 24.0881 20.1962 25.3456C12.8392 26.504 9.88469 21.9592 7.27824 17.5491C6.01567 15.4126 4.19166 10.8246 4.19166 10.8246L9.3944 10.8069C9.3944 10.8069 11.0634 13.8426 11.5055 14.6251C11.8814 15.2907 12.2955 15.8191 12.7223 16.4135C13.0805 16.9064 13.647 17.8717 14.2669 17.793C15.2754 17.6634 15.4583 13.7512 14.8334 12.4403C14.5844 11.9094 13.9874 11.7239 13.3701 11.5436C13.5784 10.2276 19.2054 9.95329 20.1149 10.9745C21.4359 12.4581 19.2003 16.5888 21.0091 17.793C23.5495 16.4618 25.719 10.8882 25.719 10.8882L31.8109 10.9263C31.8109 10.9263 30.8582 13.9392 29.8599 15.2754C29.2781 16.0579 27.3474 17.8006 27.4236 19.0936C27.4846 20.1174 29.0545 21.1133 29.8624 21.9363Z" fill="white"/>
</g>
<defs>
<clipPath id="clip0">
<rect width="36" height="36" fill="white"/>
</clipPath>
</defs>
</svg>
